<svg version="1.1" viewBox="0.0 0.0 192.0 192.0" fill="none" stroke="none" stroke-linecap="square" stroke-miterlimit="10" xmlns:xlink="http://www.w3.org/1999/xlink" xmlns="http://www.w3.org/2000/svg"><clipPath id="p.0"><path d="m0 0l192.0 0l0 192.0l-192.0 0l0 -192.0z" clip-rule="nonzero"/></clipPath><g clip-path="url(#p.0)"><path fill="#000000" fill-opacity="0.0" d="m0 0l192.0 0l0 192.0l-192.0 0z" fill-rule="evenodd"/><path fill="#ffffff" d="m18.236221 96.0l0 0c0 -43.52178 34.81603 -78.80315 77.76378 -78.80315l0 0c20.624237 0 40.403763 8.302452 54.98729 23.08091c14.583542 14.778458 22.77649 34.822346 22.77649 55.72224l0 0c0 43.521774 -34.816025 78.80315 -77.76378 78.80315l0 0c-42.94775 0 -77.76378 -35.281372 -77.76378 -78.80315z" fill-rule="evenodd"/><path fill="#000000" fill-opacity="0.0" d="m43.073433 156.00163l11.464565 -93.81524" fill-rule="evenodd"/><path stroke="#051753" stroke-width="4.0" stroke-linejoin="round" stroke-linecap="butt" d="m43.073433 156.00163l11.464565 -93.81524" fill-rule="evenodd"/><path fill="#000000" fill-opacity="0.0" d="m82.19154 126.6721l-27.653545 -64.4857" fill-rule="evenodd"/><path stroke="#051753" stroke-width="4.0" stroke-linejoin="round" stroke-linecap="butt" d="m82.19154 126.6721l-27.653545 -64.4857" fill-rule="evenodd"/><path fill="#000000" fill-opacity="0.0" d="m82.19154 126.6721l29.984253 -63.86376" fill-rule="evenodd"/><path stroke="#051753" stroke-width="4.0" stroke-linejoin="round" stroke-linecap="butt" d="m82.19154 126.6721l29.984253 -63.86376" fill-rule="evenodd"/><path fill="#000000" fill-opacity="0.0" d="m120.40414 159.3623l-8.220467 -96.53215" fill-rule="evenodd"/><path stroke="#051753" stroke-width="4.0" stroke-linejoin="round" stroke-linecap="butt" d="m120.40414 159.3623l-8.220467 -96.53215" fill-rule="evenodd"/><path fill="#000000" fill-opacity="0.0" d="m29.705976 113.06299c27.415396 0 55.21637 -7.7402573 82.22665 -2.1386108c20.847786 4.323616 53.55126 13.410217 63.01452 -9.168205" fill-rule="evenodd"/><path stroke="#051753" stroke-width="4.0" stroke-linejoin="round" stroke-linecap="butt" d="m29.705976 113.06299c27.415396 0 55.21637 -7.7402573 82.22665 -2.1386108c20.847786 4.323616 53.55126 13.410217 63.01452 -9.168205" fill-rule="evenodd"/></g></svg>